<svg width="14" height="13" viewBox="0 0 14 13" fill="none" xmlns="http://www.w3.org/2000/svg">
<path d="M8.33484 3.92509H7.68484V4.57509V5.76379C7.68484 6.2571 7.29132 6.64212 6.83015 6.64212C6.36899 6.64212 5.97547 6.2571 5.97547 5.76379V3.18262V2.02437L4.98683 2.6278L3.63147 3.45507C3.03055 3.81931 2.66922 4.47556 2.66922 5.17369V5.80542L1.31947 6.59715C1.31926 6.59727 1.31904 6.5974 1.31882 6.59753C0.689259 6.96579 0.477371 7.77652 0.838134 8.40788C0.838353 8.40827 0.838572 8.40865 0.838791 8.40903L2.5091 11.3483C2.50923 11.3486 2.50937 11.3488 2.5095 11.349C2.50953 11.3491 2.50956 11.3491 2.50959 11.3492C2.87146 11.9871 3.68198 12.2079 4.31585 11.8376L4.31679 11.8371L6.3254 10.6591H9.00359C9.88786 10.6591 10.6284 10.0778 10.89 9.2833C11.5232 9.17968 11.9942 8.62461 11.9942 7.97138V7.15707C12.3925 6.97217 12.663 6.56563 12.663 6.10342V5.08454C12.663 4.45282 12.1578 3.92509 11.5114 3.92509H8.33484Z" fill="white" stroke="#3A8DDE" stroke-width="1.3"/>
</svg>
